<?xml version="1.0" standalone="no"?>
<!DOCTYPE svg PUBLIC "-//W3C//DTD SVG 20010904//EN"
 "http://www.w3.org/TR/2001/REC-SVG-20010904/DTD/svg10.dtd">
<svg version="1.0" xmlns="http://www.w3.org/2000/svg"
 width="260.000000pt" height="260.000000pt" viewBox="0 0 260.000000 260.000000"
 preserveAspectRatio="xMidYMid meet">
<metadata>
Created by potrace 1.11, written by Peter Selinger 2001-2013
</metadata>
<g transform="translate(0.000000,260.000000) scale(0.100000,-0.100000)"
fill="#000000" stroke="none">
<path d="M1105 2484 c-383 -68 -707 -307 -879 -650 -50 -100 -93 -235 -110
-345 -14 -90 -15 -319 -2 -379 3 -14 11 -50 17 -80 42 -202 159 -411 324 -575
233 -233 502 -347 820 -349 162 -1 230 6 335 35 335 93 609 317 764 626 41 82
92 228 101 293 4 24 9 48 12 53 9 15 12 282 3 342 -21 142 -56 256 -120 383
-163 325 -468 561 -826 638 -105 22 -333 26 -439 8z m341 -399 c281 -54 519
-258 609 -520 19 -57 21 -66 36 -155 54 -336 -140 -690 -461 -838 -110 -50
-190 -66 -335 -66 -146 0 -210 14 -335 72 -132 62 -226 141 -314 265 -46 65
-110 199 -121 255 -29 141 -31 238 -9 352 59 306 297 556 595 625 41 9 79 18
84 20 29 8 192 1 251 -10z"/>
<path d="M1170 1937 c-231 -60 -393 -196 -473 -397 -36 -92 -41 -120 -42 -245
0 -130 24 -218 89 -327 258 -435 895 -417 1130 32 198 376 -17 839 -434 934
-70 16 -215 18 -270 3z"/>
</g>
</svg>
